<svg xmlns="http://www.w3.org/2000/svg" width="90" height="90" viewBox="0 0 90 90"><path d="M45,24.163a23.075,23.075,0,1,0,23.07,23.075A23.036,23.036,0,0,0,45,24.163Zm0,38.077a15,15,0,1,1,15-15A15.027,15.027,0,0,1,45,62.239ZM74.4,23.219a5.381,5.381,0,1,1-5.381-5.382A5.369,5.369,0,0,1,74.4,23.219Zm15.279,5.462c-.341-7.21-1.988-13.6-7.268-18.858-5.26-5.262-11.645-6.908-18.853-7.27-7.429-.422-29.7-.422-37.124,0C19.245,2.9,12.86,4.542,7.579,9.8S.672,21.452.311,28.661c-.422,7.431-.422,29.7,0,37.133C.652,73,2.3,79.39,7.579,84.652s11.645,6.908,18.853,7.27c7.429.422,29.7.422,37.124,0,7.208-.341,13.593-1.988,18.853-7.27C87.671,79.39,89.317,73,89.679,65.794c.422-7.431.422-29.682,0-37.113Zm-9.6,45.085a15.186,15.186,0,0,1-8.553,8.555C65.6,84.672,51.55,84.129,45,84.129s-20.62.522-26.523-1.807a15.186,15.186,0,0,1-8.553-8.555C7.579,67.842,8.121,53.785,8.121,47.238S7.6,26.613,9.928,20.709a15.186,15.186,0,0,1,8.553-8.555C24.4,9.8,38.459,10.346,45,10.346s20.62-.522,26.523,1.807a15.186,15.186,0,0,1,8.553,8.555c2.349,5.924,1.807,19.982,1.807,26.529S82.43,67.862,80.081,73.767Z" transform="translate(0.005 -2.238)" fill="#fff"/></svg>