<svg xmlns="http://www.w3.org/2000/svg" width="90" height="90" viewBox="0 0 90 90"><path d="M80.357,2.25H9.643A9.645,9.645,0,0,0,0,11.893V82.607A9.645,9.645,0,0,0,9.643,92.25H80.357A9.645,9.645,0,0,0,90,82.607V11.893A9.645,9.645,0,0,0,80.357,2.25Zm-9.824,31.9c.04.563.04,1.145.04,1.708,0,17.417-13.259,37.487-37.487,37.487a37.314,37.314,0,0,1-20.23-5.906,27.759,27.759,0,0,0,3.174.161,26.416,26.416,0,0,0,16.353-5.625,13.193,13.193,0,0,1-12.315-9.141,14.2,14.2,0,0,0,5.946-.241A13.177,13.177,0,0,1,15.469,39.656V39.5a13.167,13.167,0,0,0,5.946,1.667,13.148,13.148,0,0,1-5.866-10.969,13.011,13.011,0,0,1,1.788-6.65A37.411,37.411,0,0,0,44.5,37.326a13.2,13.2,0,0,1,22.48-12.033,25.818,25.818,0,0,0,8.357-3.174,13.141,13.141,0,0,1-5.786,7.252,26.219,26.219,0,0,0,7.594-2.049A27.732,27.732,0,0,1,70.533,34.152Z" transform="translate(0 -2.25)" fill="#fff"/></svg>