<svg xmlns="http://www.w3.org/2000/svg" width="90" height="90" viewBox="0 0 90 90"><path d="M37.527,36.422,56.652,47.29,37.527,58.158ZM90,11.893V82.607a9.645,9.645,0,0,1-9.643,9.643H9.643A9.645,9.645,0,0,1,0,82.607V11.893A9.645,9.645,0,0,1,9.643,2.25H80.357A9.645,9.645,0,0,1,90,11.893ZM81.563,47.31s0-11.973-1.527-17.719a9.17,9.17,0,0,0-6.469-6.509C67.882,21.536,45,21.536,45,21.536s-22.882,0-28.567,1.547a9.17,9.17,0,0,0-6.469,6.509C8.438,35.317,8.438,47.31,8.438,47.31s0,11.973,1.527,17.719a9.038,9.038,0,0,0,6.469,6.408C22.118,72.964,45,72.964,45,72.964s22.882,0,28.567-1.547a9.038,9.038,0,0,0,6.469-6.408c1.527-5.725,1.527-17.7,1.527-17.7Z" transform="translate(0 -2.25)" fill="#fff"/></svg>